<svg width="73" height="72" viewBox="0 0 73 72" fill="none" xmlns="http://www.w3.org/2000/svg">
    <path d="M23.8462 15.0728V12.4857C23.8462 10.9429 25.1045 9.69216 26.6567 9.69216H68.1125C69.6648 9.69216 70.9231 10.9429 70.9231 12.4857V43.424C70.9231 44.9668 69.6648 46.2175 68.1125 46.2175H62.9788V52.6152L53.4339 46.9708V20.0728C53.4339 17.3114 51.1954 15.0728 48.4339 15.0728H23.8462Z"
          fill="#648AC4" fill-opacity="0.18"/>
    <path d="M20.4083 55.9099H46.7692C47.8738 55.9099 48.7692 55.0145 48.7692 53.9099L48.7692 21.3845C48.7692 20.28 47.8738 19.3845 46.7692 19.3845H3.6923C2.58773 19.3845 1.6923 20.28 1.6923 21.3845V53.9099C1.6923 55.0145 2.58773 55.9099 3.6923 55.9099H9.63655V62.3076L20.4083 55.9099Z"
          stroke="#727B84" stroke-width="2"/>
    <ellipse cx="16.2308" cy="38.0769" rx="2.07692" ry="2.07692" fill="#297ab4"/>
    <circle cx="24.5385" cy="38.0769" r="2.07692" fill="#297ab4"/>
    <circle cx="32.8461" cy="38.0769" r="2.07692" fill="#297ab4"/>
    <path d="M23.8462 13.8636V12.4857C23.8462 10.9429 25.1045 9.69216 26.6567 9.69216H68.1125C69.6648 9.69216 70.9231 10.9429 70.9231 12.4857C70.9231 12.4857 70.9231 22.7985 70.9231 43.424C70.9231 44.9668 69.6648 46.2175 68.1125 46.2175H62.9788V52.6152L54.5457 47.646"
          stroke="#727B84" stroke-width="2" stroke-linecap="round"/>
</svg>
